<svg xmlns="http://www.w3.org/2000/svg" width="200" height="200" class="icon" p-id="4606" t="1606305501417" version="1.1" viewBox="0 0 1024 1024"><path fill="#e92100" d="M0 0v1024h839.68V839.68h184.32V0H0z" data-spm-anchor-id="a313x.7781069.0.i19" p-id="4607"/><path fill="#d81e06" d="M839.68 1024V839.68h184.32L839.68 1024z" data-spm-anchor-id="a313x.7781069.0.i23" p-id="4608"/><path fill="#fff" d="M482.3552 455.68a115.2 115.2 0 1 1-115.2 115.2 115.328 115.328 0 0 1 115.2-115.2m0-76.8a192 192 0 1 0 192 192 192 192 0 0 0-192-192z" class="selected" data-spm-anchor-id="a313x.7781069.0.i17" p-id="4609"/><path fill="#fff" d="M488.73728 251.24736l72.16896-26.26688 102.1312 280.6016-72.16896 26.26816z" class="selected" data-spm-anchor-id="a313x.7781069.0.i21" p-id="4610"/><path fill="#fff" d="M538.176 387.0848l52.6848 144.768L663.04 505.6a192.4992 192.4992 0 0 0-124.864-118.5152z" class="selected" data-spm-anchor-id="a313x.7781069.0.i18" p-id="4611"/><path fill="#fff" d="M733.6448 271.36l-19.8784 74.176-211.5584-57.28-13.4784-37.0176 71.8208-26.2656L733.6448 271.36z" class="selected" data-spm-anchor-id="a313x.7781069.0.i20" p-id="4612"/><path fill="#fff" d="M592.8704 312.8064l-31.9232-87.7184-0.192-0.0512-72.0256 26.2016 13.4784 37.0176 90.6624 24.5504z" class="selected" data-spm-anchor-id="a313x.7781069.0.i22" p-id="4613"/></svg>